<svg width="71" height="79" viewBox="0 0 71 79" fill="none" xmlns="http://www.w3.org/2000/svg">
<g clip-path="url(#clip0_1_451)">
<path d="M53.676 1.15945C50.5201 0.111059 47.9772 1.37899 45.7861 2.85122C42.7656 4.93958 39.936 7.374 37.4582 10.0127C26.3625 22.4674 21.6522 37.2969 22.4575 53.8391C22.6772 58.0442 23.5025 62.2872 24.1476 66.9745C19.8732 65.8256 16.8216 62.1718 12.4737 60.7449C12.5003 62.7207 13.7468 63.6797 14.7586 64.5024C18.9232 67.8616 23.1806 71.1962 27.5062 74.4136C29.5981 75.9419 30.853 75.808 32.0813 73.6984C34.6987 69.3372 35.7286 64.6031 35.1027 59.6133C35.0536 59.428 34.7018 59.2237 34.2081 58.8587C30.4893 60.9336 32.7657 65.784 29.8241 68.5455C26.6478 62.5452 26.1423 56.1355 26.2424 49.7638C26.3617 43.0896 27.1111 36.546 29.4236 30.2827C31.6679 24.1366 35.1095 18.7642 39.0885 13.547C42.9502 8.26164 47.8536 4.28689 53.676 1.15945Z" fill="black"/>
</g>
<defs>
<clipPath id="clip0_1_451">
<rect width="55.206" height="66.9712" fill="white" transform="matrix(-0.96671 0.255876 0.255876 0.96671 53.3691 0)"/>
</clipPath>
</defs>
</svg>
