<svg width="24" height="25" viewBox="0 0 24 25" fill="none" xmlns="http://www.w3.org/2000/svg">
<path fill-rule="evenodd" clip-rule="evenodd" d="M9.86338 18.5C9.58738 18.5 9.32338 18.386 9.13438 18.185L4.27138 13.006C3.89238 12.604 3.91338 11.971 4.31538 11.593C4.71838 11.215 5.35138 11.235 5.72838 11.637L9.85338 16.028L18.2614 6.82599C18.6354 6.41699 19.2674 6.38999 19.6754 6.76199C20.0824 7.13399 20.1104 7.76699 19.7384 8.17399L10.6014 18.174C10.4144 18.38 10.1484 18.498 9.87038 18.5H9.86338Z" fill="#666666"/>
<mask id="mask0_1_655" style="mask-type:luminance" maskUnits="userSpaceOnUse" x="4" y="6" width="16" height="13">
<path fill-rule="evenodd" clip-rule="evenodd" d="M9.86338 18.5C9.58738 18.5 9.32338 18.386 9.13438 18.185L4.27138 13.006C3.89238 12.604 3.91338 11.971 4.31538 11.593C4.71838 11.215 5.35138 11.235 5.72838 11.637L9.85338 16.028L18.2614 6.82599C18.6354 6.41699 19.2674 6.38999 19.6754 6.76199C20.0824 7.13399 20.1104 7.76699 19.7384 8.17399L10.6014 18.174C10.4144 18.38 10.1484 18.498 9.87038 18.5H9.86338Z" fill="white"/>
</mask>
<g mask="url(#mask0_1_655)">
<rect y="0.5" width="24" height="24" fill="#28803F"/>
</g>
</svg>
