<svg width="187" height="40" viewBox="0 0 187 40" fill="none" xmlns="http://www.w3.org/2000/svg">
<path d="M122.972 24.3184H185.5L175.079 37.6155" stroke="#28803F" stroke-width="1.02286"/>
<path d="M64.0285 23.8066H1.5L11.9214 37.1038" stroke="#28803F" stroke-width="1.02286"/>
<g clip-path="url(#clip0_1_1005)">
<path d="M88.4997 34.375H87.2497C87.2497 24.355 80.991 21.3181 77.1116 20.3988C79.8122 22.4225 83.4997 26.6106 83.4997 34.375H82.2497C82.2497 23.1094 74.2535 20.0862 73.9135 19.9631C73.7751 19.9133 73.6586 19.8163 73.5847 19.6891C73.5107 19.5619 73.484 19.4127 73.5093 19.2678C73.5345 19.1228 73.6101 18.9914 73.7227 18.8967C73.8352 18.802 73.9776 18.7501 74.1247 18.75C74.2685 18.75 88.4997 18.9287 88.4997 34.375Z" fill="#28803F"/>
<path d="M79.9499 13.3125C82.7201 16.2225 84.7295 19.7712 85.7999 23.6437C85.1831 22.8808 84.4853 22.1872 83.7187 21.575C81.0499 14.9875 76.9874 12.4437 76.9249 12.4125C76.8008 12.3387 76.706 12.2242 76.6567 12.0885C76.6074 11.9528 76.6066 11.8042 76.6545 11.6679C76.7023 11.5317 76.7959 11.4162 76.9193 11.3412C77.0426 11.2661 77.1882 11.2361 77.3312 11.2562C77.4437 11.2687 85.9562 12.5187 90.0624 22.2375C89.9249 23.0375 89.7999 23.875 89.6937 24.7437C87.4687 17.5625 82.9187 14.55 79.9499 13.3125Z" fill="#28803F"/>
<path d="M92.25 34.3758H91.625C91.625 32.2945 91.6937 30.3695 91.825 28.582C92.117 30.4993 92.2591 32.4364 92.25 34.3758Z" fill="#28803F"/>
<path d="M96 34.3756H94.75C94.75 19.0037 96.7381 11.4737 98.2606 7.96124C95.42 10.8131 91 17.9 91 34.3756H89.75C89.75 9.23187 99.7306 5.19937 100.155 5.03999C100.292 4.98845 100.443 4.98668 100.581 5.03497C100.719 5.08326 100.836 5.17856 100.911 5.30423C100.987 5.42991 101.015 5.57798 100.992 5.72261C100.969 5.86725 100.897 5.99926 100.786 6.09562C100.746 6.13437 96 10.8131 96 34.3756Z" fill="#28803F"/>
<path d="M92.657 13.1743C92.2445 12.8868 91.8508 12.6368 91.482 12.4243C91.7758 12.818 92.0883 13.268 92.407 13.7743C92.207 14.2555 92.0195 14.7555 91.832 15.2868C90.9746 13.7552 89.922 12.3413 88.7008 11.0805C88.5993 10.9834 88.5335 10.855 88.5139 10.716C88.4943 10.5769 88.5222 10.4353 88.593 10.314C88.6637 10.1927 88.7733 10.0987 88.9039 10.0473C89.0346 9.99589 89.1788 9.98998 89.3133 10.0305C90.6817 10.5404 91.9763 11.2298 93.1633 12.0805C92.9883 12.4305 92.8195 12.793 92.657 13.1743Z" fill="#28803F"/>
<path d="M95.0062 18.8008C94.8812 19.7008 94.775 20.6445 94.6812 21.6508C94.3371 20.5746 93.9323 19.5187 93.4688 18.4883C93.65 17.8383 93.8375 17.2258 94.0312 16.6445C94.3625 17.307 94.6875 18.0258 95.0062 18.8008Z" fill="#28803F"/>
<path d="M97.875 34.3754H96.625C96.625 30.8504 96.7313 27.7504 96.9188 25.0254C97.5689 28.0992 97.8895 31.2336 97.875 34.3754Z" fill="#28803F"/>
<path d="M95.7629 14.1805C95.6754 14.618 95.5879 15.0805 95.5004 15.5617C95.2379 15.293 94.9754 15.043 94.7129 14.8055C94.8754 14.4055 95.0379 14.0305 95.2004 13.668C95.3879 13.8305 95.5754 14.0055 95.7629 14.1805Z" fill="#28803F"/>
<path d="M103.499 34.3754H102.249C102.249 26.8316 100.162 21.6316 97.6367 18.1004C97.718 17.5379 97.7992 17.0066 97.8867 16.4941C100.88 20.2254 103.499 25.9129 103.499 34.3754Z" fill="#28803F"/>
<path d="M100.938 27.3941C100.548 29.7005 100.36 32.0364 100.375 34.3754H99.1252C99.0775 31.1204 99.4493 27.8729 100.231 24.7129C100.512 25.5941 100.748 26.489 100.938 27.3941Z" fill="#28803F"/>
<path d="M108.343 15.4128C108.306 15.4565 104.125 20.4753 104.125 34.3753C104.142 31.808 103.876 29.2466 103.331 26.7378C103.693 23.352 104.587 20.0446 105.981 16.9378C104.249 18.5501 102.94 20.5633 102.168 22.8003C101.95 22.219 101.718 21.669 101.475 21.1378C103.931 15.644 107.468 14.4753 107.693 14.4003C107.824 14.3605 107.963 14.3644 108.091 14.4114C108.219 14.4583 108.328 14.5458 108.402 14.6604C108.475 14.775 108.509 14.9106 108.499 15.0464C108.488 15.1822 108.434 15.3108 108.343 15.4128Z" fill="#28803F"/>
<path d="M113.155 23.0567C113.13 23.0754 109.749 25.0004 109.749 34.3754H108.499C108.499 28.8192 109.649 25.6629 110.73 23.9192C109.056 24.7929 107.688 26.1582 106.812 27.8317C106.724 27.1942 106.624 26.5879 106.512 26.0004C108.028 23.9077 110.258 22.4425 112.78 21.8817C112.928 21.86 113.078 21.8915 113.204 21.9705C113.33 22.0496 113.423 22.171 113.468 22.3129C113.514 22.4538 113.508 22.6064 113.45 22.743C113.393 22.8795 113.288 22.9909 113.155 23.0567Z" fill="#28803F"/>
<path d="M102.087 18.6629C101.753 18.0138 101.379 17.3855 100.969 16.7817C101.15 17.5692 101.325 18.5317 101.487 19.7004C101.362 19.9317 101.244 20.1692 101.125 20.4192C100.79 19.7382 100.421 19.0748 100.019 18.4317C99.425 15.0004 98.7625 14.2692 98.7125 14.2192C98.6486 14.1706 98.595 14.1098 98.5547 14.0403C98.5144 13.9708 98.4883 13.8941 98.4778 13.8145C98.4674 13.7349 98.4728 13.654 98.4938 13.5765C98.5147 13.499 98.5508 13.4264 98.6 13.3629C98.7052 13.2322 98.8567 13.1469 99.0231 13.1248C99.1895 13.1027 99.358 13.1455 99.4937 13.2442C100.897 14.4186 102.055 15.8586 102.9 17.4817C102.631 17.8442 102.356 18.2317 102.087 18.6629Z" fill="#28803F"/>
<path d="M106.626 34.3746H105.376C105.381 32.4377 105.262 30.5025 105.02 28.5809C105.163 27.1121 105.363 25.7871 105.588 24.5996C106.307 27.8075 106.655 31.0873 106.626 34.3746Z" fill="#28803F"/>
<path d="M90.9305 16.5322C90.4519 17.8329 90.1309 19.1863 89.9742 20.5634C89.6797 19.9778 89.3543 19.4082 88.9992 18.8572C89.0305 18.7072 89.0555 18.5697 89.0867 18.4384C89.0242 18.5197 88.968 18.6072 88.8992 18.6947C88.6555 18.3072 88.3992 17.9384 88.1367 17.5884C88.6513 16.8411 89.3074 16.202 90.068 15.7072C90.1846 15.6426 90.3188 15.617 90.451 15.6341C90.5832 15.6512 90.7065 15.7101 90.8029 15.8023C90.8992 15.8944 90.9635 16.015 90.9865 16.1463C91.0095 16.2776 90.9898 16.4128 90.9305 16.5322Z" fill="#28803F"/>
</g>
<defs>
<clipPath id="clip0_1_1005">
<rect width="40" height="40" fill="white" transform="translate(73.5)"/>
</clipPath>
</defs>
</svg>
