<svg width="49" height="49" viewBox="0 0 49 49" fill="none" xmlns="http://www.w3.org/2000/svg">
<rect x="3" y="3" width="44" height="44" rx="12" fill="#EB6E46"/>
<path d="M33.71 29.09L28.8 34H26V31.2L30.91 26.29C31.0969 26.1068 31.3482 26.0042 31.61 26.0042C31.8718 26.0042 32.1231 26.1068 32.31 26.29L33.71 27.69C33.8932 27.8769 33.9959 28.1283 33.9959 28.39C33.9959 28.6518 33.8932 28.9031 33.71 29.09V29.09Z" stroke="white" stroke-width="2" stroke-linecap="round" stroke-linejoin="round"/>
<path d="M30 22.2704C30.005 22.1805 30.005 22.0904 30 22.0004C29.9968 20.8332 29.6533 19.6922 29.0114 18.7173C28.3696 17.7423 27.4573 16.9758 26.3863 16.5116C25.3154 16.0473 24.1322 15.9056 22.9819 16.1036C21.8316 16.3017 20.764 16.831 19.91 17.6266C19.0559 18.4223 18.4526 19.4498 18.1737 20.5833C17.8949 21.7168 17.9527 22.9069 18.3401 24.008C18.7275 25.1091 19.4277 26.0733 20.3549 26.7824C21.282 27.4915 22.3959 27.9148 23.56 28.0004" stroke="white" stroke-width="2" stroke-linecap="round" stroke-linejoin="round"/>
<path d="M22 34C17.55 33.63 16 32 16 32V31C16.0035 29.9406 16.3434 28.9098 16.9706 28.0561C17.5979 27.2023 18.4801 26.5699 19.49 26.25" stroke="white" stroke-width="2" stroke-linecap="round" stroke-linejoin="round"/>
</svg>
