<svg width="16" height="16" viewBox="0 0 16 16" fill="none" xmlns="http://www.w3.org/2000/svg">
<path fill-rule="evenodd" clip-rule="evenodd" d="M8 0.5C5.96312 0.5 5.70813 0.50875 4.90812 0.545C2.18438 0.67 0.670625 2.18125 0.545625 4.9075C0.50875 5.70813 0.5 5.96312 0.5 8C0.5 10.0369 0.50875 10.2925 0.545 11.0925C0.67 13.8162 2.18125 15.33 4.9075 15.455C5.70813 15.4913 5.96312 15.5 8 15.5C10.0369 15.5 10.2925 15.4913 11.0925 15.455C13.8137 15.33 15.3313 13.8187 15.4544 11.0925C15.4913 10.2925 15.5 10.0369 15.5 8C15.5 5.96312 15.4913 5.70813 15.455 4.90812C15.3325 2.18688 13.8194 0.670625 11.0931 0.545625C10.2925 0.50875 10.0369 0.5 8 0.5ZM7.99969 4.14844C5.87281 4.14844 4.14844 5.87281 4.14844 7.99969C4.14844 10.1266 5.87281 11.8516 7.99969 11.8516C10.1266 11.8516 11.8509 10.1272 11.8509 7.99969C11.8509 5.87281 10.1266 4.14844 7.99969 4.14844ZM7.99998 10.5C6.61935 10.5 5.49998 9.38129 5.49998 8.00004C5.49998 6.61942 6.61935 5.50004 7.99998 5.50004C9.3806 5.50004 10.5 6.61942 10.5 8.00004C10.5 9.38129 9.3806 10.5 7.99998 10.5ZM12.0041 3.09766C11.5066 3.09766 11.1035 3.50078 11.1035 3.99766C11.1035 4.49453 11.5066 4.89766 12.0041 4.89766C12.501 4.89766 12.9035 4.49453 12.9035 3.99766C12.9035 3.50078 12.501 3.09766 12.0041 3.09766Z" fill="#969696"/>
</svg>
