<svg width="25" height="24" viewBox="0 0 25 24" fill="none" xmlns="http://www.w3.org/2000/svg">
<g clip-path="url(#clip0_1_498)">
<path d="M24.724 4.76758L17.4453 11.9994L24.724 19.2312C24.8556 18.9562 24.9354 18.6522 24.9354 18.3275V5.67128C24.9354 5.34658 24.8556 5.04259 24.724 4.76758Z" fill="#179B46"/>
<path d="M22.8256 3.5625H3.04433C2.71962 3.5625 2.41564 3.64233 2.14062 3.77391L11.4436 13.03C12.2661 13.8526 13.6038 13.8526 14.4263 13.03L23.7293 3.77391C23.4543 3.64233 23.1503 3.5625 22.8256 3.5625Z" fill="#179B46"/>
<path d="M1.14695 4.76758C1.01538 5.04259 0.935547 5.34658 0.935547 5.67128V18.3275C0.935547 18.6522 1.01538 18.9563 1.14695 19.2312L8.42566 11.9994L1.14695 4.76758Z" fill="#179B46"/>
<path d="M16.4506 12.9941L15.4206 14.0241C14.05 15.3947 11.8198 15.3947 10.4493 14.0241L9.41933 12.9941L2.14062 20.226C2.41564 20.3575 2.71962 20.4374 3.04433 20.4374H22.8256C23.1503 20.4374 23.4543 20.3575 23.7293 20.226L16.4506 12.9941Z" fill="#179B46"/>
</g>
<defs>
<clipPath id="clip0_1_498">
<rect width="24" height="24" fill="white" transform="translate(0.935547)"/>
</clipPath>
</defs>
</svg>
