<svg width="50" height="48" viewBox="0 0 50 48" fill="none" xmlns="http://www.w3.org/2000/svg">
<path d="M13.4984 20.4375C13.0338 20.4375 12.588 20.5083 12.1442 20.5729C12.288 20.0896 12.4359 19.5979 12.6734 19.1562C12.9109 18.5146 13.2817 17.9583 13.6505 17.3979C13.9588 16.7917 14.5026 16.3812 14.9026 15.8625C15.3213 15.3583 15.8921 15.0229 16.3442 14.6042C16.788 14.1667 17.3692 13.9479 17.8317 13.6396C18.3151 13.3625 18.7359 13.0562 19.1859 12.9104L20.3088 12.4479L21.2963 12.0375L20.2859 8L19.0421 8.3C18.6442 8.4 18.1588 8.51667 17.6067 8.65625C17.0421 8.76042 16.4401 9.04583 15.7692 9.30625C15.1067 9.60208 14.3401 9.80208 13.6276 10.2771C12.9109 10.7312 12.0838 11.1104 11.3546 11.7187C10.6484 12.3458 9.79631 12.8896 9.16714 13.6875C8.47964 14.4333 7.80047 15.2167 7.27339 16.1083C6.66297 16.9583 6.24839 17.8917 5.81089 18.8146C5.41506 19.7375 5.09631 20.6812 4.83589 21.5979C4.34214 23.4354 4.12131 25.1813 4.03589 26.675C3.96506 28.1708 4.00672 29.4146 4.09422 30.3146C4.12547 30.7396 4.18381 31.1521 4.22547 31.4375L4.27756 31.7875L4.33172 31.775C4.70227 33.5059 5.55527 35.0965 6.79206 36.3629C8.02885 37.6292 9.59889 38.5196 11.3206 38.9309C13.0422 39.3422 14.8451 39.2577 16.5208 38.6872C18.1964 38.1166 19.6763 37.0833 20.7892 35.7068C21.9022 34.3304 22.6026 32.6669 22.8097 30.9089C23.0167 29.151 22.7218 27.3703 21.9591 25.773C21.1964 24.1756 19.997 22.8268 18.4997 21.8826C17.0025 20.9384 15.2685 20.4374 13.4984 20.4375ZM36.4151 20.4375C35.9505 20.4375 35.5046 20.5083 35.0609 20.5729C35.2046 20.0896 35.3526 19.5979 35.5901 19.1562C35.8276 18.5146 36.1984 17.9583 36.5671 17.3979C36.8755 16.7917 37.4192 16.3812 37.8192 15.8625C38.238 15.3583 38.8088 15.0229 39.2609 14.6042C39.7046 14.1667 40.2859 13.9479 40.7484 13.6396C41.2317 13.3625 41.6525 13.0562 42.1026 12.9104L43.2255 12.4479L44.213 12.0375L43.2025 8L41.9588 8.3C41.5609 8.4 41.0755 8.51667 40.5234 8.65625C39.9588 8.76042 39.3567 9.04583 38.6859 9.30625C38.0255 9.60417 37.2567 9.80208 36.5442 10.2792C35.8276 10.7333 35.0005 11.1125 34.2713 11.7208C33.5651 12.3479 32.713 12.8917 32.0838 13.6875C31.3963 14.4333 30.7171 15.2167 30.1901 16.1083C29.5796 16.9583 29.1651 17.8917 28.7276 18.8146C28.3317 19.7375 28.013 20.6812 27.7526 21.5979C27.2588 23.4354 27.038 25.1813 26.9526 26.675C26.8817 28.1708 26.9234 29.4146 27.0109 30.3146C27.0421 30.7396 27.1005 31.1521 27.1421 31.4375L27.1942 31.7875L27.2484 31.775C27.6189 33.5059 28.4719 35.0965 29.7087 36.3629C30.9455 37.6292 32.5156 38.5196 34.2372 38.9309C35.9589 39.3422 37.7618 39.2577 39.4375 38.6872C41.1131 38.1166 42.593 37.0833 43.7059 35.7068C44.8188 34.3304 45.5193 32.6669 45.7263 30.9089C45.9334 29.151 45.6385 27.3703 44.8757 25.773C44.113 24.1756 42.9137 22.8268 41.4164 21.8826C39.9191 20.9384 38.1852 20.4374 36.4151 20.4375Z" fill="#3CA946"/>
</svg>
